<svg id="Layer_1" data-name="Layer 1" xmlns="http://www.w3.org/2000/svg" viewBox="0 0 75.41 107.92"><defs><style>.cls-1{fill:#fff;stroke:#97cadb;stroke-width:1.57px;}.cls-1,.cls-3{stroke-miterlimit:10;}.cls-2{fill:#018abe;}.cls-3{fill:none;stroke:#018abe;stroke-width:1.66px;}</style></defs><title>charSolo</title><path class="cls-1" d="M8.05,50.75c3.27-4,13.35-9.07,13.35-9.07l17.45,2.7s8.33,7.2,9.67,10.89,1.54,10.23,5.95,2.2C56.26,54.2,60.29,46,60.29,46l1.54-2.67c.62-1.31,11-15,6.76-4.62C66,45.27,65.33,50.14,63.45,59.6c-1.75,8.79-8,13.34-12.29,15.78-3.78,2.11-9.41-2.53-9.41-2.53-2.47-3.27,5.15,33.39-45.4,33.39V86S7.16,70.86,10.21,67.18c0,0-10.31,4-13.72,5,0-1.22.1-6.08.1-8.1C.85,59.22,5.13,54.29,8.05,50.75Z"/><rect class="cls-1" x="14.26" y="5.77" width="41.67" height="41.67" rx="6.79" transform="translate(4.48 -5.05) rotate(8.79)"/><path class="cls-2" d="M29.08,38.3s1,3.07,4,3.52a4.11,4.11,0,0,0,4.23-2.25Z"/><path class="cls-3" d="M22.2,26.29a4.19,4.19,0,0,1,3.86-1.08c2.49.47,2.88,2.12,2.88,2.12"/><path class="cls-3" d="M40.86,29.17a4.2,4.2,0,0,1,3.86-1.07c2.49.47,2.88,2.12,2.88,2.12"/></svg>