<svg id="Layer_1" data-name="Layer 1" xmlns="http://www.w3.org/2000/svg" viewBox="0 0 75.41 107.92"><defs><style>.cls-1{fill:#fff;stroke:#97cadb;stroke-width:1.57px;}.cls-1,.cls-3{stroke-miterlimit:10;}.cls-2{fill:#018abe;}.cls-3{fill:none;stroke:#018abe;stroke-width:1.66px;}</style></defs><title>char2fin</title><path class="cls-1" d="M65.89,50.75c-3.27-4-13.35-9.07-13.35-9.07L35.1,44.38s-8.34,7.2-9.67,10.89-1.55,10.23-6,2.2C17.68,54.2,13.65,46,13.65,46l-1.54-2.67c-.62-1.31-10.94-15-6.76-4.62C8,45.27,8.61,50.14,10.5,59.6c1.74,8.79,8,13.34,12.28,15.78,3.78,2.11,9.41-2.53,9.41-2.53,2.47-3.27-5.15,33.39,45.4,33.39V86S66.78,70.86,63.73,67.18c0,0,10.31,4,13.72,5,0-1.22-.1-6.08-.1-8.1C73.09,59.22,68.82,54.29,65.89,50.75Z"/><rect class="cls-1" x="18.01" y="5.77" width="41.67" height="41.67" rx="6.79" transform="translate(81.31 46.96) rotate(171.21)"/><path class="cls-2" d="M44.86,38.3s-1,3.07-4,3.52a4.11,4.11,0,0,1-4.23-2.25Z"/><path class="cls-3" d="M51.74,26.29a4.19,4.19,0,0,0-3.86-1.08c-2.49.47-2.88,2.12-2.88,2.12"/><path class="cls-3" d="M33.08,29.17a4.2,4.2,0,0,0-3.86-1.07c-2.49.47-2.88,2.12-2.88,2.12"/></svg>