<svg id="Layer_1" data-name="Layer 1" xmlns="http://www.w3.org/2000/svg" viewBox="0 0 112.49 112.53"><defs><style>.cls-1{fill:#fff;stroke:#97cadb;stroke-width:1.57px;}.cls-1,.cls-3{stroke-miterlimit:10;}.cls-2{fill:#018abe;}.cls-3{fill:none;stroke:#018abe;stroke-width:1.66px;}</style></defs><title>company</title><path class="cls-1" d="M66.59,46.51c-4-3.19-14.92-6.13-14.92-6.13L35.15,46.6s-6.68,8.76-7.23,12.64.59,10.34-5.37,3.38c-2.43-2.83-8-10-8-10l-2.05-2.3c-.88-1.16-13.8-12.42-7.57-3.14C8.8,53,10.41,57.68,14.2,66.55,17.71,74.79,24.73,78,29.47,79.47c4.12,1.3,8.68-4.41,8.68-4.41C39.9,71.36,40,108.8,89.44,98.41L85.28,78.62S71.59,66,67.85,63c0,0,10.91,1.76,14.47,2.1-.25-1.2-1.35-5.93-1.77-7.9C75.38,53.32,70.18,49.38,66.59,46.51Z"/><rect class="cls-1" x="14.33" y="7.6" width="41.67" height="41.67" rx="6.79" transform="translate(78.11 42.65) rotate(159.36)"/><path class="cls-2" d="M43.46,38.64s-.39,3.22-3.18,4.27a4.12,4.12,0,0,1-4.6-1.34Z"/><path class="cls-3" d="M47.72,25.48a4.19,4.19,0,0,0-4-.26c-2.35,1-2.39,2.66-2.39,2.66"/><path class="cls-3" d="M30.05,32.13a4.19,4.19,0,0,0-4-.26c-2.35,1-2.39,2.67-2.39,2.67"/><path class="cls-1" d="M114.55,66.13c-3.1-4.08-13-9.6-13-9.6L84,58.53S75.43,65.4,74,69s-2,10.16-6,2c-1.66-3.34-5.36-11.66-5.36-11.66L61.12,56.6c-.57-1.33-10.34-15.41-6.58-4.89,2.38,6.63,2.81,11.52,4.32,21.05C60.25,81.61,66.28,86.41,70.51,89c3.68,2.27,9.5-2.15,9.5-2.15C82.6,83.7,73.53,120,124,122l.81-20.2s-10.2-15.57-13.1-19.37c0,0,10.15,4.37,13.52,5.56,0-1.21.14-6.07.22-8.08C121.41,74.87,117.34,69.78,114.55,66.13Z"/><rect class="cls-1" x="67.67" y="20.09" width="41.67" height="41.67" rx="6.79" transform="translate(181.07 71.55) rotate(173.49)"/><path class="cls-2" d="M94,52.84s-1.15,3-4.12,3.37a4.11,4.11,0,0,1-4.13-2.43Z"/><path class="cls-3" d="M101.39,41.12a4.19,4.19,0,0,0-3.81-1.23c-2.51.37-3,2-3,2"/><path class="cls-3" d="M82.63,43.26A4.16,4.16,0,0,0,78.83,42c-2.51.37-3,2-3,2"/></svg>