<svg xmlns="http://www.w3.org/2000/svg" xmlns:xlink="http://www.w3.org/1999/xlink" viewBox="0 0 234.56 227.81"><defs><style>.cls-1{fill:#fff;}.cls-2,.cls-3,.cls-4{stroke:#7c7c7c;stroke-miterlimit:10;}.cls-2{fill:url(#radial-gradient);}.cls-3{fill:url(#radial-gradient-2);}.cls-4{fill:url(#radial-gradient-3);}</style><radialGradient id="radial-gradient" cx="114.56" cy="141.14" r="47.84" gradientUnits="userSpaceOnUse"><stop offset="0" stop-color="#d8d8d8"/><stop offset="1" stop-color="#a5a5a5"/></radialGradient><radialGradient id="radial-gradient-2" cx="97.31" cy="106.77" r="47.22" gradientTransform="translate(13.46 8.11) scale(1.04)" gradientUnits="userSpaceOnUse"><stop offset="0.24" stop-color="#d8d8d8"/><stop offset="1" stop-color="#a5a5a5"/></radialGradient><radialGradient id="radial-gradient-3" cx="112.4" cy="82.17" r="5.96" gradientTransform="matrix(1, 0, 0, 1, 0, 0)" xlink:href="#radial-gradient-2"/></defs><title>iconsIG</title><g id="Layer_4" data-name="Layer 4"><ellipse class="cls-1" cx="114.13" cy="146.61" rx="71.44" ry="27.56"/><path d="M185.57,146.61a14.27,14.27,0,0,1-3.95,9.19,34.42,34.42,0,0,1-7.93,6.47,76.12,76.12,0,0,1-18.89,8,163.11,163.11,0,0,1-40.67,4.86,162.25,162.25,0,0,1-40.67-4.87,80.5,80.5,0,0,1-19.2-7.5A34.28,34.28,0,0,1,46,156.4a13.32,13.32,0,0,1,0-19.58,34.32,34.32,0,0,1,8.28-6.41,80.47,80.47,0,0,1,19.2-7.49,162.25,162.25,0,0,1,40.67-4.87,162.19,162.19,0,0,1,40.67,4.87,76.82,76.82,0,0,1,18.89,8,34.54,34.54,0,0,1,7.93,6.46A14.2,14.2,0,0,1,185.57,146.61Zm0,0a13.63,13.63,0,0,0-4.09-9.06,32.94,32.94,0,0,0-8.16-6,66.16,66.16,0,0,0-9.31-3.95,97.06,97.06,0,0,0-9.72-2.8,160.05,160.05,0,0,0-40.16-4.8A160.05,160.05,0,0,0,74,124.85a78.62,78.62,0,0,0-18.71,7.3,32.27,32.27,0,0,0-7.8,6,11.35,11.35,0,0,0,0,16.9,32.78,32.78,0,0,0,7.8,6A79.05,79.05,0,0,0,74,168.37a160.51,160.51,0,0,0,40.16,4.8,159.6,159.6,0,0,0,40.16-4.81,96.17,96.17,0,0,0,9.71-2.81,65.66,65.66,0,0,0,9.31-4,32.65,32.65,0,0,0,8.16-5.94A13.55,13.55,0,0,0,185.57,146.61Z"/><ellipse class="cls-2" cx="114.56" cy="141.14" rx="63.97" ry="22.04"/><path class="cls-3" d="M114.62,82.77c44.17,0,58.79,26.6,58.79,57.38,0,0-21.36,14.57-59.12,15.15s-58.52-14.93-58.52-14.93S51.55,82.77,114.62,82.77Z"/><circle class="cls-4" cx="112.4" cy="82.17" r="5.96"/></g></svg>