<svg id="Layer_1" data-name="Layer 1" xmlns="http://www.w3.org/2000/svg" viewBox="0 0 31.44 27.38"><defs><style>.cls-1{fill:#018abe;}</style></defs><title>expressions</title><path class="cls-1" d="M11.5,19.74S13,22.62,16,22.62a4.12,4.12,0,0,0,3.84-2.88Z"/><path class="cls-1" d="M25.53,11.87a.67.67,0,0,1-.28-.06,4.54,4.54,0,0,0-3.2,0,.73.73,0,0,1-.83-.15.75.75,0,0,1-.16-.82A4.75,4.75,0,0,1,24.48,8a.74.74,0,0,1,.24,1.47,2.88,2.88,0,0,0-1.2.55,5.68,5.68,0,0,1,2.29.41.75.75,0,0,1-.28,1.44Z"/><path class="cls-1" d="M5.91,11.87a.71.71,0,0,0,.28-.06,4.56,4.56,0,0,1,3.2,0,.72.72,0,0,0,.82-.15.74.74,0,0,0,.16-.82A4.72,4.72,0,0,0,7,8a.74.74,0,0,0-.85.62.76.76,0,0,0,.62.85,2.93,2.93,0,0,1,1.2.55,5.65,5.65,0,0,0-2.29.41.74.74,0,0,0-.41,1A.76.76,0,0,0,5.91,11.87Z"/></svg>