<svg id="Layer_1" data-name="Layer 1" xmlns="http://www.w3.org/2000/svg" viewBox="0 0 167.28 151.74"><defs><style>.cls-1{fill:#fff;stroke:#97cadb;stroke-miterlimit:10;stroke-width:1.57px;}.cls-2{fill:#018abe;}</style></defs><title>charmoods</title><path class="cls-1" d="M14.24,134.08a11.87,11.87,0,0,0,6-7.29c1.55-5.32,2.38-11,5.9-14.74S39,101.92,39,101.92H56.64s9.33,5.84,11.22,9.27,1.19,16.16,6.69,12a21.12,21.12,0,0,1,12.37-3.78l10.38.82s9.74,1.8,1.36,3.74c-6.6,1.53-10.71-2-15.52,3.17s-7.73,8.77-12,9.28-7-3.26-7-3.26,2.27,17.48,1.45,24.45l-42.34.12s6.19-24.83,8.65-28.94c0,0-17.59,13.3-23.26,13.3S14.24,134.08,14.24,134.08Z"/><rect class="cls-1" x="29.37" y="64.09" width="41.67" height="41.67" rx="6.79"/><path class="cls-1" d="M162.82,60.35c-3.27-4-13.35-9.07-13.35-9.07L132,54s-8.34,7.2-9.67,10.88-1.55,10.23-6,2.21c-1.8-3.27-5.83-11.44-5.83-11.44L109.05,53c-.62-1.31-11-15-6.77-4.63,2.64,6.54,3.27,11.4,5.15,20.86,1.75,8.79,8,13.35,12.29,15.78,3.77,2.12,9.41-2.53,9.41-2.53,2.46-3.26-5.16,33.39,45.39,33.39V95.61s-10.81-15.15-13.86-18.83c0,0,10.31,4,13.73,5,0-1.22-.11-6.07-.11-8.09C170,68.82,165.75,63.89,162.82,60.35Z"/><rect class="cls-1" x="114.95" y="15.37" width="41.67" height="41.67" rx="6.79" transform="translate(275.5 51.23) rotate(171.21)"/><path class="cls-2" d="M44.33,96.32s2.18,4.2,6.54,4.2,5.59-4.2,5.59-4.2Z"/><path class="cls-2" d="M63.52,87.76a1.24,1.24,0,0,1-.41-.08,6.5,6.5,0,0,0-4.67,0A1.09,1.09,0,0,1,57,86.24a6.94,6.94,0,0,1,5-4.13,1.08,1.08,0,0,1,1.24.91,1.09,1.09,0,0,1-.9,1.24,4.43,4.43,0,0,0-1.75.81,8.16,8.16,0,0,1,3.35.59,1.09,1.09,0,0,1,.59,1.42A1.08,1.08,0,0,1,63.52,87.76Z"/><path class="cls-2" d="M36.9,87.76a1.24,1.24,0,0,0,.41-.08,6.45,6.45,0,0,1,4.66,0,1.09,1.09,0,0,0,1.44-1.43,6.94,6.94,0,0,0-5-4.13,1.08,1.08,0,0,0-1.24.91,1.09,1.09,0,0,0,.9,1.24,4.43,4.43,0,0,1,1.75.81,8.16,8.16,0,0,0-3.35.59,1.09,1.09,0,0,0-.59,1.42A1.08,1.08,0,0,0,36.9,87.76Z"/><path class="cls-2" d="M131.08,46.29s2.66,3.9,7,3.38,5.05-4.84,5.05-4.84Z"/><path class="cls-2" d="M149.1,35.48a1,1,0,0,1-.42,0,6.51,6.51,0,0,0-4.63.55,1.09,1.09,0,0,1-1.6-1.24,6.9,6.9,0,0,1,4.46-4.7,1.09,1.09,0,0,1,.59,2.09,4.45,4.45,0,0,0-1.64,1,8.21,8.21,0,0,1,3.4.19,1.09,1.09,0,0,1-.16,2.13Z"/><path class="cls-2" d="M122.66,38.68a1.11,1.11,0,0,0,.4-.13,6.52,6.52,0,0,1,4.63-.57A1.09,1.09,0,0,0,129,36.39a6.94,6.94,0,0,0-5.45-3.5,1.09,1.09,0,0,0-.08,2.17,4.51,4.51,0,0,1,1.84.6,8,8,0,0,0-3.26,1,1.09,1.09,0,0,0,.66,2Z"/></svg>