<svg id="Layer_1" data-name="Layer 1" xmlns="http://www.w3.org/2000/svg" viewBox="0 0 112.72 111.04"><defs><style>.cls-1{fill:#fff;stroke:#97cadb;stroke-miterlimit:10;stroke-width:1.57px;}.cls-2{fill:#018abe;}</style></defs><title>charmoods</title><path class="cls-1" d="M7.25,92.49A11.9,11.9,0,0,0,13.3,85.2c1.55-5.32,2.38-11,5.9-14.74S32,60.33,32,60.33H49.65S59,66.17,60.87,69.6s1.2,16.16,6.7,12a21.12,21.12,0,0,1,12.37-3.78l10.38.82s9.74,1.8,1.36,3.74c-6.6,1.53-10.71-2-15.52,3.17s-7.73,8.77-12,9.28-7-3.26-7-3.26,2.27,17.48,1.45,24.45l-42.35.12s6.2-24.83,8.65-28.94c0,0-17.58,13.3-23.25,13.3S7.25,92.49,7.25,92.49Z"/><rect class="cls-1" x="22.39" y="22.5" width="41.67" height="41.67" rx="6.79"/><path class="cls-2" d="M37.35,54.73s2.18,4.2,6.53,4.2,5.6-4.2,5.6-4.2Z"/><path class="cls-2" d="M56.54,46.17a1.19,1.19,0,0,1-.41-.08,6.49,6.49,0,0,0-4.67,0A1.09,1.09,0,0,1,50,44.65a6.94,6.94,0,0,1,5-4.13,1.09,1.09,0,0,1,.34,2.15,4.38,4.38,0,0,0-1.76.81,8,8,0,0,1,3.35.6,1.07,1.07,0,0,1,.6,1.41A1.09,1.09,0,0,1,56.54,46.17Z"/><path class="cls-2" d="M29.91,46.17a1.15,1.15,0,0,0,.41-.08,6.49,6.49,0,0,1,4.67,0,1.07,1.07,0,0,0,1.2-.23,1.09,1.09,0,0,0,.24-1.2,7,7,0,0,0-5-4.13,1.08,1.08,0,0,0-1.24.91,1.09,1.09,0,0,0,.9,1.24,4.43,4.43,0,0,1,1.75.81,8,8,0,0,0-3.35.6,1.08,1.08,0,0,0-.59,1.41A1.07,1.07,0,0,0,29.91,46.17Z"/></svg>