<svg id="Layer_1" data-name="Layer 1" xmlns="http://www.w3.org/2000/svg" viewBox="0 0 175.77 179.32"><defs><style>.cls-1{fill:#018abe;}</style></defs><title>moods</title><path class="cls-1" d="M87.2,170.29A80.35,80.35,0,1,1,167.54,90,80.43,80.43,0,0,1,87.2,170.29Zm0-156.19A75.85,75.85,0,1,0,163.05,90,75.93,75.93,0,0,0,87.2,14.1Z"/><path class="cls-1" d="M116.74,89.94a5.82,5.82,0,1,1-5.82-5.81A5.82,5.82,0,0,1,116.74,89.94Z"/><path class="cls-1" d="M69.29,89.94a5.82,5.82,0,1,1-5.81-5.81A5.81,5.81,0,0,1,69.29,89.94Z"/><path class="cls-1" d="M114.47,79.85a6,6,0,0,0-4.52.27.81.81,0,1,0,.7,1.46,4.41,4.41,0,0,1,5.82,2,.81.81,0,1,0,1.43-.74,6,6,0,0,0-3.43-3Z"/><path class="cls-1" d="M60.58,79.85a6,6,0,0,1,4.52.27.81.81,0,1,1-.7,1.46,4.41,4.41,0,0,0-5.82,2,.8.8,0,0,1-1.08.35.81.81,0,0,1-.36-1.09,6,6,0,0,1,3.44-3Z"/><path class="cls-1" d="M107.27,111.88c-1.29-.64-10.58-1.09-20.07-1.17-9.49.08-18.78.53-20.07,1.17-2.64,1.32,4.73,21.75,20.07,21.75h0C102.54,133.63,109.91,113.2,107.27,111.88Z"/><path class="cls-1" d="M101.44,125.09a16.28,16.28,0,0,0-28.48,0c3.44,3.9,8.22,7,14.24,7h0C93.22,132.13,98,129,101.44,125.09Z"/><path class="cls-1" d="M88,132.88H86.89c-6.75-.12-11.59-4-14.49-7.3l-.35-.39.25-.47a17,17,0,0,1,29.79,0l.26.47-.35.39c-2.83,3.21-7.53,7-14,7.28ZM73.88,125c2.73,3,7.11,6.3,13.06,6.39h.57c5.92-.11,10.29-3.43,13-6.39a15.54,15.54,0,0,0-26.64,0Z"/></svg>