<svg id="Layer_1" data-name="Layer 1" xmlns="http://www.w3.org/2000/svg" viewBox="0 0 175.77 179.32"><defs><style>.cls-1{fill:#018abe;}</style></defs><title>moods</title><path class="cls-1" d="M88.55,170.5A80.56,80.56,0,1,1,169.1,89.94,80.64,80.64,0,0,1,88.55,170.5Zm0-156.6a76,76,0,1,0,76,76A76.13,76.13,0,0,0,88.55,13.9Z"/><path class="cls-1" d="M118.16,89.94a5.83,5.83,0,1,1-5.83-5.83A5.83,5.83,0,0,1,118.16,89.94Z"/><path class="cls-1" d="M70.59,89.94a5.83,5.83,0,1,1-5.83-5.83A5.83,5.83,0,0,1,70.59,89.94Z"/><path class="cls-1" d="M88.54,126.23a24.07,24.07,0,0,1-16.88-6.86,3.25,3.25,0,0,1,4.53-4.67,17.71,17.71,0,0,0,24.71,0,3.25,3.25,0,1,1,4.53,4.67,24.1,24.1,0,0,1-16.89,6.86Z"/><path class="cls-1" d="M57.19,78.39a6,6,0,0,1,4.43-1,.81.81,0,0,1-.26,1.6,4.4,4.4,0,0,0-5,3.53.81.81,0,0,1-1.6-.31,6,6,0,0,1,2.47-3.81Z"/><path class="cls-1" d="M119.9,78.39a6,6,0,0,0-4.43-1,.81.81,0,1,0,.26,1.6,4.42,4.42,0,0,1,5,3.53.81.81,0,0,0,1.59-.31,6,6,0,0,0-2.47-3.81Z"/></svg>