<svg id="Layer_1" data-name="Layer 1" xmlns="http://www.w3.org/2000/svg" viewBox="0 0 164.92 156.5"><defs><style>.cls-1{fill:#fff;stroke:#97cadb;stroke-width:1.57px;}.cls-1,.cls-3{stroke-miterlimit:10;}.cls-2{fill:#018abe;}.cls-3{fill:none;stroke:#018abe;stroke-width:1.66px;}</style></defs><title>charmoods</title><path class="cls-1" d="M11.25,135.82a11.9,11.9,0,0,0,6.05-7.29c1.55-5.32,2.38-11,5.9-14.74S36,103.65,36,103.65H53.65s9.34,5.85,11.23,9.28,1.19,16.15,6.69,12a21.12,21.12,0,0,1,12.37-3.78l10.38.81s9.74,1.81,1.36,3.75c-6.6,1.53-10.71-2-15.52,3.17s-7.73,8.77-12,9.28-7-3.26-7-3.26,2.27,17.48,1.45,24.45l-42.35.12s6.2-24.84,8.66-28.94c0,0-17.59,13.3-23.26,13.3S11.25,135.82,11.25,135.82Z"/><rect class="cls-1" x="26.39" y="65.83" width="41.67" height="41.67" rx="6.79"/><path class="cls-2" d="M43.07,99.13S44.56,102,47.55,102a4.11,4.11,0,0,0,3.83-2.88Z"/><path class="cls-3" d="M34.44,88.32a4.2,4.2,0,0,1,3.65-1.66c2.53.09,3.17,1.66,3.17,1.66"/><path class="cls-3" d="M53.32,88.32A4.2,4.2,0,0,1,57,86.66c2.53.09,3.17,1.66,3.17,1.66"/><path class="cls-1" d="M159.84,62.08C156.57,58.13,146.49,53,146.49,53l-17.44,2.7s-8.34,7.2-9.67,10.88-1.55,10.23-5.95,2.21c-1.8-3.27-5.83-11.44-5.83-11.44l-1.53-2.67c-.63-1.31-10.95-15-6.77-4.63,2.64,6.54,3.27,11.4,5.15,20.86,1.74,8.79,8,13.35,12.29,15.78,3.77,2.12,9.4-2.53,9.4-2.53,2.47-3.26-5.15,33.39,45.4,33.39V97.35S160.73,82.2,157.68,78.51c0,0,10.31,4,13.72,5,0-1.22-.1-6.07-.1-8.09C167,70.55,162.77,65.63,159.84,62.08Z"/><rect class="cls-1" x="111.96" y="17.11" width="41.67" height="41.67" rx="6.79" transform="translate(269.84 55.14) rotate(171.21)"/><path class="cls-2" d="M138.81,49.63s-1,3.07-4,3.53a4.12,4.12,0,0,1-4.23-2.26Z"/><path class="cls-3" d="M145.69,37.62a4.19,4.19,0,0,0-3.85-1.07c-2.5.47-2.89,2.11-2.89,2.11"/><path class="cls-3" d="M127,40.51a4.21,4.21,0,0,0-3.85-1.08c-2.5.47-2.89,2.12-2.89,2.12"/></svg>