<svg id="Layer_1" data-name="Layer 1" xmlns="http://www.w3.org/2000/svg" viewBox="0 0 86.26 89.4"><defs><style>.cls-1{fill:#018abe;}</style></defs><title>home</title><path class="cls-1" d="M6.05,42.93,40.39,9.08a3.61,3.61,0,0,1,5.06,0L79.86,42.74c1.06,1,1.83,2.67,1.23,4a11.33,11.33,0,0,1-1.58,2.12c-1.3,1.64-3.9,2.35-5.41.91L45,21c-1.61-1.79-2-1.88-4.21.25l-28,28a3.57,3.57,0,0,1-2.52,1,5.12,5.12,0,0,1-5-3.5A3.6,3.6,0,0,1,6.05,42.93Z"/><path class="cls-1" d="M40,25.47c2.45-2.47,4-2.09,6.23.22S66.23,45.94,66.23,45.94l4.65,5a3.56,3.56,0,0,1,1,2.35l.52,21.37s.45,6.35-6.24,6.57-13.92,0-13.92,0-2.45.23-2.56-3.45-.11-18-.11-18a2.83,2.83,0,0,0-2.9-3.12c-4-.13-6.68,0-6.68,0s-3.46-.56-3.57,3.45.13,15.06,0,17.51-.69,3.81-3.92,3.75c-4.23-.07-11.92,0-11.92,0s-5.79.35-5.9-6.22-.05-22.36-.05-22.36-.17-1,1.72-3C19,46.76,40,25.47,40,25.47Z"/><path class="cls-1" d="M65.11,12.37c2.71,0,4.42-.35,4.42,3.46V26.17s.25,3.32-2.4.37-6.21-6.71-6.21-6.71a4.3,4.3,0,0,1-1.23-3.38c0-2.83.12-3.81,2.21-3.94S65.11,12.37,65.11,12.37Z"/></svg>