<?xml version="1.0" encoding="utf-8"?>
<!-- Generator: Adobe Illustrator 21.1.0, SVG Export Plug-In . SVG Version: 6.00 Build 0)  -->
<svg version="1.1" id="Layer_1" xmlns="http://www.w3.org/2000/svg" xmlns:xlink="http://www.w3.org/1999/xlink" x="0px" y="0px"
	 viewBox="0 0 64 64" style="enable-background:new 0 0 64 64;" xml:space="preserve">
<style type="text/css">
	.st0{fill:#DD8852;}
	.st1{fill:#E8BE9C;}
</style>
<path class="st0" d="M54,9.1h-4c-0.1,0-0.2,0-0.2,0V5c0-2.8-2.3-5-5.1-5H10.2C7.4,0,5.1,2.3,5.1,5v46.8c0,2.8,2.3,5,5.1,5h6v2.3
	c0,2.7,2.2,4.8,4.9,4.8H54c2.7,0,4.9-2.2,4.9-4.8V14C58.9,11.3,56.7,9.1,54,9.1z M7.1,51.9V5c0-1.6,1.4-3,3.1-3h34.4
	c1.7,0,3.1,1.3,3.1,3v46.8c0,1.6-1.4,3-3.1,3H10.2C8.5,54.9,7.1,53.5,7.1,51.9z M56.9,59.2c0,1.6-1.3,2.8-2.9,2.8H21.2
	c-1.6,0-2.9-1.3-2.9-2.8v-2.3h26.4c2.8,0,5.1-2.3,5.1-5V11.1c0.1,0,0.2,0,0.2,0h4c1.6,0,2.9,1.3,2.9,2.8V59.2z"/>
<path class="st1" d="M38.6,13.2H16.3c-0.6,0-1,0.5-1,1c0,0.6,0.5,1,1,1h22.3c0.6,0,1-0.5,1-1C39.6,13.7,39.2,13.2,38.6,13.2z"/>
<path class="st1" d="M38.6,21.3H16.3c-0.6,0-1,0.5-1,1c0,0.6,0.5,1,1,1h22.3c0.6,0,1-0.5,1-1C39.6,21.8,39.2,21.3,38.6,21.3z"/>
<path class="st1" d="M38.6,29.5H16.3c-0.6,0-1,0.5-1,1s0.5,1,1,1h22.3c0.6,0,1-0.5,1-1S39.2,29.5,38.6,29.5z"/>
<path class="st1" d="M28.4,37.6H16.3c-0.6,0-1,0.5-1,1s0.5,1,1,1h12.2c0.6,0,1-0.5,1-1S29,37.6,28.4,37.6z"/>
</svg>
