<svg xmlns="http://www.w3.org/2000/svg" viewBox="0 0 234.56 227.81"><defs><style>.cls-1{fill:#fff;}.cls-2{fill:#cc8a5c;}.cls-3{fill:#e8be9c;}.cls-4{fill:#469319;}.cls-5{fill:#b77239;}.cls-6{fill:#e55b30;}.cls-7{fill:#f4e798;}.cls-8{fill:none;stroke:#cc8a5c;stroke-miterlimit:10;}</style></defs><title>iconsIG</title><g id="Layer_3" data-name="Layer 3"><ellipse class="cls-1" cx="118.47" cy="146.68" rx="71.44" ry="27.56"/><path d="M189.91,146.68a14.25,14.25,0,0,1-3.95,9.19,34.67,34.67,0,0,1-7.93,6.48,76.47,76.47,0,0,1-18.89,8,162.65,162.65,0,0,1-40.67,4.87,162.71,162.71,0,0,1-40.67-4.87,80.93,80.93,0,0,1-19.2-7.5,34.78,34.78,0,0,1-8.29-6.4,13.35,13.35,0,0,1,0-19.59,34.78,34.78,0,0,1,8.29-6.4A80.93,80.93,0,0,1,77.8,123a162.25,162.25,0,0,1,40.67-4.87A162.19,162.19,0,0,1,159.14,123,77.59,77.59,0,0,1,178,131,34.84,34.84,0,0,1,186,137.5,14.23,14.23,0,0,1,189.91,146.68Zm0,0a13.55,13.55,0,0,0-4.1-9.05,32.89,32.89,0,0,0-8.15-5.95,65,65,0,0,0-9.31-4,97.12,97.12,0,0,0-9.72-2.81,160.51,160.51,0,0,0-40.16-4.8,160.51,160.51,0,0,0-40.16,4.8,79.05,79.05,0,0,0-18.71,7.3,32.56,32.56,0,0,0-7.8,6,11.34,11.34,0,0,0,0,16.89,32.56,32.56,0,0,0,7.8,6,78.6,78.6,0,0,0,18.71,7.29,160.52,160.52,0,0,0,40.16,4.81,160.52,160.52,0,0,0,40.16-4.81c3.28-.79,6.53-1.7,9.71-2.81a66.84,66.84,0,0,0,9.31-3.95,33.16,33.16,0,0,0,8.16-5.94A13.57,13.57,0,0,0,189.91,146.68Z"/><ellipse class="cls-2" cx="118.42" cy="138.73" rx="59.55" ry="21.44"/><path class="cls-3" d="M178.31,138.73a8.93,8.93,0,0,1-1.06,4.2,15.27,15.27,0,0,1-2.52,3.5,34.22,34.22,0,0,1-6.78,5.26,79.91,79.91,0,0,1-15.68,7c-2.73.88-5.49,1.69-8.28,2.31s-5.62,1.18-8.45,1.58a138.24,138.24,0,0,1-17.12,1.23,131,131,0,0,1-17.14-1,124.82,124.82,0,0,1-16.94-3.21,69.77,69.77,0,0,1-16.28-6.35,30.35,30.35,0,0,1-7.24-5.56,16.76,16.76,0,0,1-2.75-4,10.65,10.65,0,0,1-1.07-5,10.29,10.29,0,0,1,1.47-4.79,16.43,16.43,0,0,1,3-3.6A25.68,25.68,0,0,1,65,127.69c.6-.41,1.24-.75,1.86-1.13s1.27-.69,1.92-1a90,90,0,0,1,16.06-5.68,160.77,160.77,0,0,1,33.57-5.45,97.12,97.12,0,0,1,33.83,4.4,78.84,78.84,0,0,1,15.67,7,34.13,34.13,0,0,1,6.78,5.24,15,15,0,0,1,2.53,3.49A8.94,8.94,0,0,1,178.31,138.73Zm-.68,0a8.14,8.14,0,0,0-1-3.85,13.08,13.08,0,0,0-2.53-3.17,25.39,25.39,0,0,0-7-4.34,49.72,49.72,0,0,0-7.8-2.64c-2.67-.69-5.37-1.21-8.08-1.65-5.43-.87-10.89-1.42-16.35-1.9s-10.94-.8-16.45-1c-11-.42-22.19-.51-33,1.88a59.1,59.1,0,0,0-15.5,5.6,25.86,25.86,0,0,0-6.38,4.78c-1.75,1.89-2.9,4.18-2.73,6.32s1.53,4.06,3.35,5.68a24.84,24.84,0,0,0,3.07,2.18c.53.34,1.12.64,1.67,1s1.16.6,1.76.87a76.34,76.34,0,0,0,15.27,4.93,165.27,165.27,0,0,0,32.54,3.15c5.48,0,11-.11,16.42-.51,1.37-.09,2.73-.19,4.09-.31s2.74-.22,4.1-.36c2.72-.31,5.45-.6,8.17-1s5.41-.94,8.08-1.62a49.68,49.68,0,0,0,7.8-2.63,25.27,25.27,0,0,0,6.94-4.32,13,13,0,0,0,2.54-3.15A8.09,8.09,0,0,0,177.63,138.73Z"/><path class="cls-4" d="M173.9,146.26a6.21,6.21,0,0,1-3.77-1.33,10.92,10.92,0,0,1-5.58,1.48,11.45,11.45,0,0,1-1.88-.15c0,7.68-6.74,13.9-15,13.9A15.16,15.16,0,0,1,134,152.05c-.25,0-.51,0-.77,0a19.47,19.47,0,0,1-7.15-1.31c-2.2,3.73-5.68,6.16-9.6,6.16-5.73,0-10.52-5.16-11.75-12.08a6.32,6.32,0,0,1-4.09,1.56,6.13,6.13,0,0,1-3-.79c-1.77,3.86-5,6.46-8.76,6.46-4.56,0-8.42-3.87-9.72-9.21-1.88,5.42-6.09,9.21-11,9.21-4.58,0-8.56-3.3-10.6-8.15-4-.49-7.09-4.8-7.09-10.06,0-5.58,3.51-10.1,7.84-10.1a6.26,6.26,0,0,1,2.46.51A10.41,10.41,0,0,1,68.13,121a10.63,10.63,0,0,1,8,4,3.54,3.54,0,0,1,2.51-1.19c1.85,0,3.46,1.78,4.33,4.42a8.64,8.64,0,0,1,5.85-2.4,9,9,0,0,1,6.89,3.48,6.61,6.61,0,0,1,4.86-2.3c2.72,0,5.1,1.87,6.42,4.66,2.21-3.56,5.61-5.84,9.42-5.84a10,10,0,0,1,5.95,2,10.26,10.26,0,0,1,12.1-.11,9.45,9.45,0,0,1,12.14,4.7c.22,0,.43,0,.65,0a4.15,4.15,0,0,1,3.47-2.19,3.36,3.36,0,0,1,.71.08c.4-3.67,2.85-6.5,5.81-6.5,3.25,0,5.88,3.39,5.88,7.58,0,0,0,.06,0,.09a13.36,13.36,0,0,1,1.42-.09,11.2,11.2,0,0,1,2.93.38c1.3-2.83,3.69-4.73,6.42-4.73,4.12,0,7.46,4.31,7.46,9.63S178,146.26,173.9,146.26Z"/><rect class="cls-5" x="58.43" y="110.65" width="115.56" height="25.31" rx="12.66"/><rect class="cls-6" x="62.69" y="104.3" width="107.04" height="16.15" rx="5.64"/><polygon class="cls-7" points="106.64 117.62 66.76 104.66 130.21 94.36 170.09 107.33 106.64 117.62"/><path class="cls-3" d="M116.3,74.77C138,74.66,174.61,87,175.61,95.71a74.63,74.63,0,0,1,.57,9.43,3,3,0,0,1-3.12,2.82H58.9a3,3,0,0,1-3.13-3,88,88,0,0,0-.14-9.29C55.06,88.4,81.77,75,116.3,74.77Z"/><line class="cls-8" x1="96.28" y1="80.65" x2="90.91" y2="83.97"/><line class="cls-8" x1="107.71" y1="84.33" x2="106.56" y2="88.77"/><line class="cls-8" x1="129.23" y1="80.69" x2="135.06" y2="83.93"/><line class="cls-8" x1="115.9" y1="79.31" x2="118.9" y2="81.71"/></g></svg>