<svg id="Layer_1" data-name="Layer 1" xmlns="http://www.w3.org/2000/svg" viewBox="0 0 175.77 179.32"><defs><style>.cls-1{fill:#018abe;}</style></defs><title>moods</title><path class="cls-1" d="M88,169.25A79.94,79.94,0,1,1,168,89.31,80,80,0,0,1,88,169.25ZM88,13.84a75.47,75.47,0,1,0,75.46,75.47A75.55,75.55,0,0,0,88,13.84Z"/><path class="cls-1" d="M117.41,89.31a5.79,5.79,0,1,1-5.79-5.79A5.79,5.79,0,0,1,117.41,89.31Z"/><path class="cls-1" d="M70.2,89.31a5.79,5.79,0,1,1-5.79-5.79A5.79,5.79,0,0,1,70.2,89.31Z"/><path class="cls-1" d="M115.15,79.26a6,6,0,0,0-4.5.28.79.79,0,0,0-.37,1.07.8.8,0,0,0,1.07.38,4.32,4.32,0,0,1,3.29-.2,4.38,4.38,0,0,1,2.5,2.15.81.81,0,0,0,1.08.35.82.82,0,0,0,.35-1.09,6,6,0,0,0-3.42-2.94Z"/><path class="cls-1" d="M61.53,79.26a5.93,5.93,0,0,1,4.49.28.79.79,0,0,1,.38,1.07.8.8,0,0,1-1.07.38,4.32,4.32,0,0,0-3.29-.2,4.38,4.38,0,0,0-2.5,2.15.81.81,0,1,1-1.43-.74,6,6,0,0,1,3.42-2.94Z"/><path class="cls-1" d="M88,113a24,24,0,0,1,16.76,6.81,3.23,3.23,0,0,1-4.5,4.64,17.56,17.56,0,0,0-24.52,0,3.23,3.23,0,1,1-4.5-4.64A24,24,0,0,1,88,113Z"/></svg>