<svg id="Layer_1" data-name="Layer 1" xmlns="http://www.w3.org/2000/svg" viewBox="0 0 169.68 156.5"><defs><style>.cls-1{fill:#fff;stroke:#97cadb;stroke-width:1.57px;}.cls-1,.cls-2,.cls-4{stroke-miterlimit:10;}.cls-2,.cls-4{fill:none;stroke:#018abe;}.cls-2{stroke-width:1.85px;}.cls-3{fill:#018abe;}.cls-4{stroke-width:1.12px;}</style></defs><title>charmoods</title><path class="cls-1" d="M16.53,137.83a11.87,11.87,0,0,0,6-7.29c1.55-5.32,2.38-11,5.91-14.74s12.8-10.13,12.8-10.13H58.93s9.33,5.84,11.22,9.27,1.19,16.16,6.69,12a21.12,21.12,0,0,1,12.37-3.78l10.38.82s9.74,1.8,1.36,3.74c-6.6,1.53-10.71-2-15.52,3.17s-7.73,8.77-12,9.28-7-3.26-7-3.26,2.27,17.48,1.45,24.45l-42.34.12s6.19-24.83,8.65-28.94c0,0-17.59,13.3-23.26,13.3S16.53,137.83,16.53,137.83Z"/><rect class="cls-1" x="31.66" y="67.84" width="41.67" height="41.67" rx="6.79"/><path class="cls-1" d="M165.11,64.1C161.84,60.15,151.76,55,151.76,55l-17.44,2.7s-8.34,7.2-9.67,10.88-1.55,10.24-6,2.21c-1.8-3.27-5.83-11.44-5.83-11.44l-1.53-2.67c-.62-1.31-11-15-6.77-4.63,2.64,6.54,3.27,11.4,5.15,20.86,1.75,8.79,8,13.35,12.29,15.78,3.77,2.12,9.41-2.53,9.41-2.53,2.46-3.26-5.16,33.39,45.39,33.39V99.36S166,84.21,163,80.53c0,0,10.31,4,13.73,5,0-1.22-.11-6.07-.11-8.09C172.31,72.57,168,67.64,165.11,64.1Z"/><rect class="cls-1" x="117.24" y="19.12" width="41.67" height="41.67" rx="6.79" transform="translate(280.63 58.33) rotate(171.21)"/><path class="cls-2" d="M40.23,91.12A4.68,4.68,0,0,0,44.29,93c2.83-.08,3.55-1.83,3.55-1.83"/><path class="cls-2" d="M57.68,91.18A4.68,4.68,0,0,0,61.77,93c2.83-.12,3.52-1.88,3.52-1.88"/><path class="cls-3" d="M52.74,100.43a6.19,6.19,0,0,1,4.34,1.77.83.83,0,0,1-1.16,1.2,4.53,4.53,0,0,0-6.35,0,.85.85,0,0,1-1.19,0,.84.84,0,0,1,0-1.18,6.19,6.19,0,0,1,4.34-1.77Z"/><path class="cls-4" d="M63.47,85.22c1.26,2.55,1.89,2.07,4,2.41"/><path class="cls-4" d="M42.54,85.22c-1.26,2.55-1.89,2.07-4,2.41"/><path class="cls-2" d="M126,42.91a4.69,4.69,0,0,0,4.24,1.4c2.81-.39,3.33-2.21,3.33-2.21"/><path class="cls-2" d="M143.37,41.06a4.68,4.68,0,0,0,4.26,1.34c2.8-.43,3.3-2.25,3.3-2.25"/><path class="cls-3" d="M139.47,50.79A6.21,6.21,0,0,1,144,52.07a.83.83,0,0,1-1,1.32,4.54,4.54,0,0,0-6.32.7A.84.84,0,0,1,135.35,53a6.22,6.22,0,0,1,4.12-2.23Z"/><path class="cls-4" d="M148.48,34.5c1.52,2.4,2.1,1.85,4.21,2"/><path class="cls-4" d="M127.67,36.79c-1,2.67-1.65,2.26-3.69,2.83"/></svg>