<svg id="Layer_1" data-name="Layer 1" xmlns="http://www.w3.org/2000/svg" viewBox="0 0 31.44 27.38"><defs><style>.cls-1,.cls-3{fill:none;stroke:#018abe;stroke-miterlimit:10;}.cls-1{stroke-width:1.66px;}.cls-2{fill:#018abe;}</style></defs><title>expressions</title><path class="cls-1" d="M4.12,11a4.22,4.22,0,0,0,3.64,1.66C10.3,12.55,10.94,11,10.94,11"/><path class="cls-1" d="M19.76,11a4.2,4.2,0,0,0,3.66,1.62C26,12.52,26.57,11,26.57,11"/><path class="cls-2" d="M15.33,19.3a5.55,5.55,0,0,1,3.89,1.58.75.75,0,0,1,0,1.06.75.75,0,0,1-1.06,0,4.08,4.08,0,0,0-5.68,0,.75.75,0,0,1-1.06,0,.75.75,0,0,1,0-1.06,5.55,5.55,0,0,1,3.89-1.58Z"/><path class="cls-3" d="M25,5.67C26.07,8,26.64,7.53,28.51,7.83"/><path class="cls-3" d="M6.19,5.67C5.07,8,4.5,7.53,2.63,7.83"/></svg>