<svg id="Layer_1" data-name="Layer 1" xmlns="http://www.w3.org/2000/svg" viewBox="0 0 110.08 104.62"><defs><style>.cls-1{fill:#fff;stroke:#97cadb;stroke-width:1.57px;}.cls-1,.cls-2,.cls-4{stroke-miterlimit:10;}.cls-2,.cls-4{fill:none;stroke:#018abe;}.cls-2{stroke-width:1.85px;}.cls-3{fill:#018abe;}.cls-4{stroke-width:1.12px;}</style></defs><title>charmoods</title><path class="cls-1" d="M10.67,86.33a11.9,11.9,0,0,0,6-7.29c1.55-5.33,2.38-11,5.9-14.74s12.8-10.14,12.8-10.14H53.07S62.41,60,64.29,63.44s1.2,16.15,6.7,12a21.12,21.12,0,0,1,12.37-3.78l10.38.81s9.74,1.81,1.36,3.75c-6.6,1.53-10.71-2-15.52,3.17s-7.73,8.76-12,9.28-7-3.27-7-3.27,2.27,17.49,1.45,24.46L19.61,110s6.2-24.84,8.65-28.94c0,0-17.58,13.3-23.25,13.3S10.67,86.33,10.67,86.33Z"/><rect class="cls-1" x="25.81" y="16.33" width="41.67" height="41.67" rx="6.79"/><path class="cls-2" d="M34.38,39.62a4.66,4.66,0,0,0,4.06,1.85c2.83-.08,3.55-1.83,3.55-1.83"/><path class="cls-2" d="M51.83,39.68a4.66,4.66,0,0,0,4.08,1.8c2.83-.12,3.53-1.87,3.53-1.87"/><path class="cls-3" d="M46.89,48.93a6.2,6.2,0,0,1,4.34,1.76.84.84,0,0,1-1.17,1.2,4.55,4.55,0,0,0-6.35,0,.83.83,0,1,1-1.16-1.2,6.18,6.18,0,0,1,4.34-1.76Z"/><path class="cls-4" d="M57.62,33.72c1.25,2.55,1.89,2.07,4,2.41"/><path class="cls-4" d="M36.68,33.72c-1.25,2.55-1.88,2.07-4,2.41"/></svg>