<svg id="Layer_1" data-name="Layer 1" xmlns="http://www.w3.org/2000/svg" viewBox="0 0 107.87 106.84"><defs><style>.cls-1{fill:#fff;stroke:#97cadb;stroke-miterlimit:10;stroke-width:1.57px;}.cls-2{fill:#018abe;}</style></defs><title>charmoods</title><path class="cls-1" d="M13.25,87.3A11.94,11.94,0,0,0,19.3,80c1.55-5.33,2.38-11,5.9-14.74S38,55.13,38,55.13H55.65S65,61,66.87,64.41s1.2,16.15,6.7,12a21.12,21.12,0,0,1,12.37-3.78l10.38.82s9.74,1.8,1.36,3.74c-6.6,1.53-10.71-2-15.52,3.18s-7.73,8.76-12,9.27-7-3.26-7-3.26,2.27,17.48,1.45,24.45L22.19,111S28.39,86.14,30.84,82c0,0-17.58,13.3-23.25,13.3S13.25,87.3,13.25,87.3Z"/><rect class="cls-1" x="28.39" y="17.3" width="41.67" height="41.67" rx="6.79"/><path class="cls-2" d="M55,53.17s-1.9-3.8-5.82-3.86A5.4,5.4,0,0,0,44.1,53Z"/><path class="cls-2" d="M62.41,41.15a.83.83,0,0,1-.37-.08,5.86,5.86,0,0,0-4.2,0,1,1,0,0,1-1.08-.21,1,1,0,0,1-.21-1.07A6.24,6.24,0,0,1,61,36.06,1,1,0,0,1,61.35,38a4,4,0,0,0-1.58.73,7.27,7.27,0,0,1,3,.53,1,1,0,0,1-.37,1.89Z"/><path class="cls-2" d="M36.65,41.15a.83.83,0,0,0,.37-.08,5.86,5.86,0,0,1,4.2,0,1,1,0,0,0,1.08-.21,1,1,0,0,0,.21-1.07A6.24,6.24,0,0,0,38,36.06a1,1,0,0,0-.3,1.94,4.1,4.1,0,0,1,1.57.73,7.27,7.27,0,0,0-3,.53,1,1,0,0,0,.37,1.89Z"/></svg>