<svg id="Layer_1" data-name="Layer 1" xmlns="http://www.w3.org/2000/svg" viewBox="0 0 31.44 27.38"><defs><style>.cls-1{fill:#018abe;}</style></defs><title>expressions</title><path class="cls-1" d="M19.82,20.79s-1.44-2.9-4.43-2.95a4.13,4.13,0,0,0-3.88,2.82Z"/><path class="cls-1" d="M25.46,10.87a.71.71,0,0,1-.28-.06,4.56,4.56,0,0,0-3.2,0,.72.72,0,0,1-.82-.15A.74.74,0,0,1,21,9.83,4.72,4.72,0,0,1,24.42,7a.74.74,0,0,1,.85.62.75.75,0,0,1-.62.85,3,3,0,0,0-1.2.55,5.72,5.72,0,0,1,2.3.41.75.75,0,0,1-.29,1.44Z"/><path class="cls-1" d="M5.84,10.87a.75.75,0,0,0,.29-.06,4.56,4.56,0,0,1,3.2,0,.72.72,0,0,0,.82-.15.74.74,0,0,0,.16-.82A4.73,4.73,0,0,0,6.89,7,.74.74,0,0,0,6,7.62a.75.75,0,0,0,.62.85A3,3,0,0,1,7.86,9a5.72,5.72,0,0,0-2.3.41.75.75,0,0,0,.28,1.44Z"/></svg>