<svg id="Layer_1" data-name="Layer 1" xmlns="http://www.w3.org/2000/svg" viewBox="0 0 155.97 151.74"><defs><style>.cls-1{fill:#fff;stroke:#97cadb;stroke-miterlimit:10;stroke-width:1.57px;}.cls-2{fill:#018abe;}</style></defs><title>charmoods</title><path class="cls-1" d="M5.12,132.07a11.9,11.9,0,0,0,6-7.29c1.55-5.32,2.38-11,5.9-14.74S29.86,99.9,29.86,99.9H47.52s9.33,5.85,11.22,9.28,1.19,16.15,6.69,12a21.12,21.12,0,0,1,12.37-3.78l10.38.81s9.74,1.81,1.36,3.75c-6.6,1.53-10.71-2-15.52,3.17s-7.73,8.76-12,9.28-7-3.26-7-3.26,2.27,17.48,1.45,24.45l-42.35.12s6.2-24.84,8.66-28.94c0,0-17.59,13.3-23.26,13.3S5.12,132.07,5.12,132.07Z"/><rect class="cls-1" x="20.25" y="62.08" width="41.67" height="41.67" rx="6.79"/><path class="cls-1" d="M151.7,58.33c-3.27-3.95-13.35-9.06-13.35-9.06L120.91,52s-8.34,7.2-9.67,10.88-1.55,10.23-5.95,2.2c-1.8-3.26-5.83-11.43-5.83-11.43l-1.53-2.68c-.62-1.3-11-15-6.77-4.62,2.64,6.53,3.27,11.4,5.15,20.86,1.75,8.79,8,13.35,12.29,15.78,3.77,2.12,9.4-2.53,9.4-2.53,2.47-3.26-5.15,33.39,45.4,33.39V93.6s-10.81-15.16-13.86-18.84c0,0,10.31,4,13.72,5,0-1.22-.1-6.08-.1-8.09C158.9,66.8,154.63,61.88,151.7,58.33Z"/><rect class="cls-1" x="103.83" y="13.35" width="41.67" height="41.67" rx="6.79" transform="translate(253.08 48.93) rotate(171.21)"/><path class="cls-2" d="M46.87,98s-1.9-3.81-5.82-3.87A5.41,5.41,0,0,0,36,97.79Z"/><path class="cls-2" d="M54.27,85.92a1,1,0,0,1-.37-.07,5.9,5.9,0,0,0-4.2,0,1,1,0,0,1-1.08-.2,1,1,0,0,1-.21-1.08,6.24,6.24,0,0,1,4.49-3.72,1,1,0,0,1,.31,1.93,4,4,0,0,0-1.58.73,7.29,7.29,0,0,1,3,.54,1,1,0,0,1,.54,1.28A1,1,0,0,1,54.27,85.92Z"/><path class="cls-2" d="M28.51,85.92a.94.94,0,0,0,.37-.07,5.89,5.89,0,0,1,4.2,0,1,1,0,0,0,1.3-1.28,6.27,6.27,0,0,0-4.49-3.72,1,1,0,0,0-.31,1.93,4.11,4.11,0,0,1,1.58.73,7.3,7.3,0,0,0-3,.54,1,1,0,0,0-.53,1.28A1,1,0,0,0,28.51,85.92Z"/><path class="cls-2" d="M132.05,46s-2.65-3.33-6.49-2.57a5.4,5.4,0,0,0-4.21,4.67Z"/><path class="cls-2" d="M136.8,32.69a.92.92,0,0,1-.37,0,5.85,5.85,0,0,0-4.12.86,1,1,0,0,1-1.1,0,1,1,0,0,1-.43-1A6.28,6.28,0,0,1,134.41,28a1,1,0,0,1,.7,1.83,3.93,3.93,0,0,0-1.39,1,7.12,7.12,0,0,1,3.05-.1,1,1,0,0,1,0,1.92Z"/><path class="cls-2" d="M111.6,38a.83.83,0,0,0,.35-.15,5.83,5.83,0,0,1,4.11-.87,1,1,0,0,0,1-1.53,6.25,6.25,0,0,0-5.17-2.7,1,1,0,0,0,.1,1.95,4.08,4.08,0,0,1,1.7.39,7.07,7.07,0,0,0-2.84,1.15A1,1,0,0,0,111.6,38Z"/></svg>