<svg id="Layer_1" data-name="Layer 1" xmlns="http://www.w3.org/2000/svg" viewBox="0 0 111.52 121.1"><defs><style>.cls-1{fill:#fff;stroke:#97cadb;stroke-width:1.57px;}.cls-1,.cls-3{stroke-miterlimit:10;}.cls-2{fill:#018abe;}.cls-3{fill:none;stroke:#018abe;stroke-width:1.66px;}</style></defs><title>char</title><path class="cls-1" d="M15.47,83.71a11.9,11.9,0,0,0,6-7.29c1.54-5.33,2.38-11,5.9-14.74s12.8-10.14,12.8-10.14H57.87s9.34,5.84,11.22,9.28,1.2,16.15,6.7,12a21,21,0,0,1,12.37-3.78l10.38.81s9.74,1.81,1.36,3.75c-6.61,1.53-10.71-2-15.52,3.17s-7.73,8.76-12,9.28-7-3.27-7-3.27,2.27,17.49,1.45,24.46l-42.35.11s6.2-24.83,8.65-28.93c0,0-17.58,13.3-23.25,13.3S15.47,83.71,15.47,83.71Z"/><rect class="cls-1" x="30.61" y="13.71" width="41.67" height="41.67" rx="6.79"/><path class="cls-2" d="M47.29,47s1.49,2.88,4.48,2.88A4.11,4.11,0,0,0,55.6,47Z"/><path class="cls-3" d="M38.66,36.2a4.2,4.2,0,0,1,3.65-1.65c2.53.08,3.17,1.65,3.17,1.65"/><path class="cls-3" d="M57.54,36.2a4.2,4.2,0,0,1,3.65-1.65c2.53.08,3.17,1.65,3.17,1.65"/></svg>