<svg id="Layer_1" data-name="Layer 1" xmlns="http://www.w3.org/2000/svg" viewBox="0 0 138.53 134.13"><defs><style>.cls-1{fill:#018abe;}</style></defs><title>facesV2</title><path class="cls-1" d="M69.26,119.8A51.7,51.7,0,1,1,121,68.1,51.75,51.75,0,0,1,69.26,119.8Zm0-100.5a48.81,48.81,0,1,0,48.81,48.8A48.85,48.85,0,0,0,69.26,19.3Z"/><path class="cls-1" d="M88.27,68.1a3.74,3.74,0,1,1-3.74-3.74A3.75,3.75,0,0,1,88.27,68.1Z"/><path class="cls-1" d="M57.74,68.1A3.74,3.74,0,1,1,54,64.36,3.74,3.74,0,0,1,57.74,68.1Z"/><path class="cls-1" d="M86.81,61.6a3.91,3.91,0,0,0-2.91.18.52.52,0,0,0-.24.7.51.51,0,0,0,.69.24,2.81,2.81,0,0,1,2.13-.13A2.88,2.88,0,0,1,88.1,64a.51.51,0,0,0,.69.23.52.52,0,0,0,.23-.7,3.89,3.89,0,0,0-2.21-1.91Z"/><path class="cls-1" d="M52.13,61.6a3.91,3.91,0,0,1,2.91.18.53.53,0,0,1,.25.7.52.52,0,0,1-.7.24,2.79,2.79,0,0,0-2.12-.13A2.82,2.82,0,0,0,50.85,64a.52.52,0,1,1-.93-.47,3.89,3.89,0,0,1,2.21-1.91Z"/><path class="cls-1" d="M82.18,82.22c-.83-.42-6.81-.71-12.92-.76s-12.08.34-12.91.76c-1.7.85,3,14,12.91,14h0C79.13,96.21,83.87,83.07,82.18,82.22Z"/><path class="cls-1" d="M78.43,90.72a10.48,10.48,0,0,0-18.33,0,12.26,12.26,0,0,0,9.16,4.53h0A12.26,12.26,0,0,0,78.43,90.72Z"/><path class="cls-1" d="M69.74,95.73h-.67A12.85,12.85,0,0,1,59.74,91l-.22-.26.16-.3a11,11,0,0,1,19.17,0l.16.3-.22.26a12.91,12.91,0,0,1-9.05,4.68Zm-9-5.08a11.78,11.78,0,0,0,8.41,4.12h.36a11.71,11.71,0,0,0,8.37-4.11,10,10,0,0,0-17.14,0Z"/></svg>