<svg id="Layer_1" data-name="Layer 1" xmlns="http://www.w3.org/2000/svg" viewBox="0 0 138.53 134.13"><defs><style>.cls-1{fill:#018abe;}</style></defs><title>facesV2</title><path class="cls-1" d="M70.76,120.45a51.78,51.78,0,1,1,51.77-51.78A51.83,51.83,0,0,1,70.76,120.45Zm0-100.66a48.88,48.88,0,1,0,48.88,48.88A48.94,48.94,0,0,0,70.76,19.79Z"/><path class="cls-1" d="M89.79,68.67A3.75,3.75,0,1,1,86,64.92,3.75,3.75,0,0,1,89.79,68.67Z"/><path class="cls-1" d="M59.21,68.67a3.75,3.75,0,1,1-3.74-3.75A3.74,3.74,0,0,1,59.21,68.67Z"/><path class="cls-1" d="M70.75,92A15.47,15.47,0,0,1,59.9,87.58a2.09,2.09,0,0,1,2.91-3,11.37,11.37,0,0,0,15.88,0,2.1,2.1,0,0,1,3,0,2.08,2.08,0,0,1,0,3A15.5,15.5,0,0,1,70.75,92Z"/><path class="cls-1" d="M50.6,61.24a3.88,3.88,0,0,1,2.85-.65.53.53,0,0,1,.43.6.53.53,0,0,1-.6.43A2.84,2.84,0,0,0,50,63.89a.52.52,0,0,1-1-.2,3.9,3.9,0,0,1,1.59-2.45Z"/><path class="cls-1" d="M90.91,61.24a3.88,3.88,0,0,0-2.85-.65.53.53,0,0,0-.43.6.53.53,0,0,0,.6.43,2.84,2.84,0,0,1,3.24,2.27.52.52,0,0,0,1-.2,3.9,3.9,0,0,0-1.59-2.45Z"/></svg>