<svg xmlns="http://www.w3.org/2000/svg" viewBox="0 0 234.56 227.81"><defs><style>.cls-1{fill:#fff;}.cls-2{fill:#cc8a5c;}.cls-3{fill:#e8be9c;}.cls-4{fill:#d88852;stroke:#ddb283;}.cls-4,.cls-5{stroke-miterlimit:10;}.cls-5{fill:#f4e798;stroke:#f4e798;stroke-width:0.55px;}</style></defs><title>iconsIG</title><g id="Layer_1" data-name="Layer 1"><ellipse class="cls-1" cx="117.28" cy="140.67" rx="71.44" ry="27.56"/><path d="M188.72,140.67a14.2,14.2,0,0,1-3.95,9.19,34.46,34.46,0,0,1-7.93,6.48,76.47,76.47,0,0,1-18.89,8,162.65,162.65,0,0,1-40.67,4.87,162.25,162.25,0,0,1-40.67-4.87,80.93,80.93,0,0,1-19.2-7.5,34.54,34.54,0,0,1-8.28-6.4,13.33,13.33,0,0,1,0-19.59,34.54,34.54,0,0,1,8.28-6.4,80.93,80.93,0,0,1,19.2-7.5,162.25,162.25,0,0,1,40.67-4.87A162.19,162.19,0,0,1,158,117a77.26,77.26,0,0,1,18.89,8,34.84,34.84,0,0,1,7.93,6.47A14.17,14.17,0,0,1,188.72,140.67Zm0,0a13.58,13.58,0,0,0-4.09-9,32.94,32.94,0,0,0-8.16-6,65,65,0,0,0-9.31-4,97.12,97.12,0,0,0-9.72-2.81,160.51,160.51,0,0,0-40.16-4.8,160.51,160.51,0,0,0-40.16,4.8,79.05,79.05,0,0,0-18.71,7.3,32.56,32.56,0,0,0-7.8,6,11.34,11.34,0,0,0,0,16.89,32.56,32.56,0,0,0,7.8,6,78.6,78.6,0,0,0,18.71,7.29,160.52,160.52,0,0,0,40.16,4.81,160.52,160.52,0,0,0,40.16-4.81c3.28-.79,6.53-1.7,9.71-2.81a66.84,66.84,0,0,0,9.31-4,33.16,33.16,0,0,0,8.16-5.94A13.57,13.57,0,0,0,188.72,140.67Z"/><ellipse class="cls-2" cx="118.47" cy="134.99" rx="61.94" ry="21.44"/><path class="cls-3" d="M180.76,135a8.72,8.72,0,0,1-1.17,4.32,15.61,15.61,0,0,1-2.72,3.53,36,36,0,0,1-7.14,5.24,86.56,86.56,0,0,1-16.29,7c-2.83.88-5.69,1.68-8.58,2.3-1.44.32-2.89.61-4.35.89s-2.91.5-4.38.68a146.89,146.89,0,0,1-17.66,1.22,141.51,141.51,0,0,1-17.69-.95A134.13,134.13,0,0,1,83.28,156a74.62,74.62,0,0,1-16.89-6.29,31.56,31.56,0,0,1-7.6-5.52,17.14,17.14,0,0,1-3-4.05,10.3,10.3,0,0,1-1.2-5.18,10.09,10.09,0,0,1,1.6-5,17.15,17.15,0,0,1,3.19-3.61,34.38,34.38,0,0,1,7.7-4.74,96.31,96.31,0,0,1,16.66-5.61,174,174,0,0,1,34.7-5.44A103.81,103.81,0,0,1,153.42,115a84.11,84.11,0,0,1,16.28,6.94,36.25,36.25,0,0,1,7.14,5.22,15.54,15.54,0,0,1,2.73,3.51A8.82,8.82,0,0,1,180.76,135Zm-.7,0a7.9,7.9,0,0,0-1.14-4,13.58,13.58,0,0,0-2.72-3.19,26.4,26.4,0,0,0-7.3-4.3,52.22,52.22,0,0,0-8.12-2.6c-2.76-.67-5.56-1.18-8.37-1.61-5.63-.85-11.28-1.38-16.93-1.85s-11.32-.78-17-1c-11.35-.43-22.94-.55-34.19,1.8a63.46,63.46,0,0,0-16.11,5.54,38,38,0,0,0-3.6,2.15,24.43,24.43,0,0,0-3.14,2.63c-1.87,1.89-3.17,4.23-3,6.4s1.65,4.12,3.6,5.73a30.69,30.69,0,0,0,6.84,4,81.59,81.59,0,0,0,15.89,4.87,179.65,179.65,0,0,0,33.69,3.11c5.67,0,11.33-.11,17-.5s11.31-.83,16.94-1.65c2.81-.42,5.61-.91,8.37-1.58a52.19,52.19,0,0,0,8.12-2.59,26.68,26.68,0,0,0,7.29-4.28,13.77,13.77,0,0,0,2.73-3.17A8,8,0,0,0,180.06,135Z"/><ellipse class="cls-2" cx="118.47" cy="121.97" rx="61.94" ry="21.44"/><path class="cls-3" d="M180.76,122a8.76,8.76,0,0,1-1.17,4.33,15.84,15.84,0,0,1-2.72,3.53,36,36,0,0,1-7.14,5.24,86.52,86.52,0,0,1-16.29,7c-2.83.88-5.69,1.68-8.58,2.3-1.44.33-2.89.61-4.35.89s-2.91.5-4.38.69a149,149,0,0,1-17.66,1.22,141.52,141.52,0,0,1-17.69-1A132.47,132.47,0,0,1,83.28,143a74.59,74.59,0,0,1-16.89-6.28,31.88,31.88,0,0,1-7.6-5.53,17.09,17.09,0,0,1-3-4,10.34,10.34,0,0,1-1.2-5.19,10.16,10.16,0,0,1,1.6-5,17.41,17.41,0,0,1,3.19-3.61,35.13,35.13,0,0,1,7.7-4.74,97.17,97.17,0,0,1,16.66-5.61,175.41,175.41,0,0,1,34.7-5.44A104.07,104.07,0,0,1,153.42,102a85.36,85.36,0,0,1,16.28,6.94,36.25,36.25,0,0,1,7.14,5.22,15.82,15.82,0,0,1,2.73,3.52A8.78,8.78,0,0,1,180.76,122Zm-.7,0a7.93,7.93,0,0,0-1.14-4,13.79,13.79,0,0,0-2.72-3.19,26.65,26.65,0,0,0-7.3-4.3,52.19,52.19,0,0,0-8.12-2.59c-2.76-.68-5.56-1.18-8.37-1.62-5.63-.84-11.28-1.37-16.93-1.84s-11.32-.79-17-1c-11.35-.43-22.94-.55-34.19,1.8a63.46,63.46,0,0,0-16.11,5.54,38.09,38.09,0,0,0-3.6,2.16,24.36,24.36,0,0,0-3.14,2.62c-1.87,1.89-3.17,4.24-3,6.4s1.65,4.12,3.6,5.73a31.1,31.1,0,0,0,6.84,4,82.28,82.28,0,0,0,15.89,4.87,179.64,179.64,0,0,0,33.69,3.1q8.5.08,17-.49c5.66-.36,11.31-.83,16.94-1.66,2.81-.42,5.61-.91,8.37-1.58a53.24,53.24,0,0,0,8.12-2.58,26.68,26.68,0,0,0,7.29-4.28,14.2,14.2,0,0,0,2.73-3.17A8,8,0,0,0,180.06,122Z"/><ellipse class="cls-2" cx="117.28" cy="108.95" rx="61.94" ry="21.44"/><path class="cls-3" d="M179.57,109a8.69,8.69,0,0,1-1.17,4.32,15.89,15.89,0,0,1-2.72,3.54,36,36,0,0,1-7.14,5.24,86.24,86.24,0,0,1-16.29,7c-2.83.88-5.68,1.68-8.58,2.3-1.44.32-2.89.61-4.34.89s-2.92.5-4.38.68a145.16,145.16,0,0,1-17.67,1.22,139.63,139.63,0,0,1-17.69-1A132.77,132.77,0,0,1,82.09,130a74.59,74.59,0,0,1-16.89-6.28,32.08,32.08,0,0,1-7.6-5.53,17.22,17.22,0,0,1-3-4.05,10.38,10.38,0,0,1-1.2-5.18,10.12,10.12,0,0,1,1.6-5,17.15,17.15,0,0,1,3.19-3.61,34.38,34.38,0,0,1,7.7-4.74A97.17,97.17,0,0,1,82.58,90a175.41,175.41,0,0,1,34.7-5.44A104.07,104.07,0,0,1,152.23,89a85.36,85.36,0,0,1,16.28,6.94,36.61,36.61,0,0,1,7.15,5.22,16,16,0,0,1,2.72,3.51A8.82,8.82,0,0,1,179.57,109Zm-.7,0a7.93,7.93,0,0,0-1.14-4,13.79,13.79,0,0,0-2.72-3.19,26.49,26.49,0,0,0-7.29-4.3,54,54,0,0,0-8.12-2.6c-2.77-.67-5.57-1.18-8.38-1.61-5.62-.85-11.27-1.37-16.93-1.85s-11.32-.78-17-1c-11.35-.43-22.94-.55-34.18,1.8A63.53,63.53,0,0,0,67,97.77a36.09,36.09,0,0,0-3.6,2.16,23.57,23.57,0,0,0-3.14,2.62c-1.87,1.89-3.17,4.24-3,6.4s1.66,4.12,3.6,5.73a30.69,30.69,0,0,0,6.84,4,80.91,80.91,0,0,0,15.89,4.87c11,2.26,22.38,3,33.69,3.11,5.67,0,11.33-.11,17-.49s11.3-.84,16.93-1.66c2.81-.42,5.61-.91,8.37-1.58a52.19,52.19,0,0,0,8.12-2.59,26.43,26.43,0,0,0,7.29-4.28,13.53,13.53,0,0,0,2.73-3.17A7.85,7.85,0,0,0,178.87,109Z"/><ellipse class="cls-2" cx="118.47" cy="97.24" rx="61.94" ry="21.44"/><path class="cls-3" d="M180.76,97.24a8.72,8.72,0,0,1-1.17,4.32,15.61,15.61,0,0,1-2.72,3.53,36,36,0,0,1-7.14,5.24,86.56,86.56,0,0,1-16.29,7c-2.83.88-5.69,1.68-8.58,2.3-1.44.32-2.89.61-4.35.89s-2.91.5-4.38.68a146.89,146.89,0,0,1-17.66,1.22,141.51,141.51,0,0,1-17.69-1,134.13,134.13,0,0,1-17.5-3.18A74.62,74.62,0,0,1,66.39,112a31.56,31.56,0,0,1-7.6-5.52,17.14,17.14,0,0,1-3-4,10.3,10.3,0,0,1-1.2-5.18,10.09,10.09,0,0,1,1.6-5,17.15,17.15,0,0,1,3.19-3.61,34.38,34.38,0,0,1,7.7-4.74,96.31,96.31,0,0,1,16.66-5.61,174,174,0,0,1,34.7-5.44,104.06,104.06,0,0,1,34.95,4.36,84.76,84.76,0,0,1,16.28,7,36.25,36.25,0,0,1,7.14,5.22,15.54,15.54,0,0,1,2.73,3.51A8.79,8.79,0,0,1,180.76,97.24Zm-.7,0a7.9,7.9,0,0,0-1.14-3.95,13.58,13.58,0,0,0-2.72-3.19,26.4,26.4,0,0,0-7.3-4.3,52.22,52.22,0,0,0-8.12-2.6c-2.76-.67-5.56-1.18-8.37-1.61-5.63-.85-11.28-1.38-16.93-1.85s-11.32-.78-17-1c-11.35-.43-22.94-.55-34.19,1.8a63.46,63.46,0,0,0-16.11,5.54,38,38,0,0,0-3.6,2.15,24.43,24.43,0,0,0-3.14,2.63c-1.87,1.89-3.17,4.23-3,6.4s1.65,4.12,3.6,5.73a30.69,30.69,0,0,0,6.84,4,81.59,81.59,0,0,0,15.89,4.87,179.65,179.65,0,0,0,33.69,3.11c5.67,0,11.33-.11,17-.5s11.31-.83,16.94-1.65c2.81-.42,5.61-.91,8.37-1.58a52.19,52.19,0,0,0,8.12-2.59,26.68,26.68,0,0,0,7.29-4.28,13.77,13.77,0,0,0,2.73-3.17A8,8,0,0,0,180.06,97.24Z"/><path class="cls-4" d="M122.73,73.7c16.44.69,32.88,2.73,41.36,9s13.42,9.87,8.49,12.34S152,91,157.77,95.08s16.28,8.81,15.82,11.94-.35,23.75-3.84,15-2.66-12.86-6.77-13-5.76,5.19-11,4.16-4.39-10.08-15.91-6.24-6.85,33.87-12.34,36.54-.54-28-8.77-29.14-24.13,2.2-27.42-4.11-9.77,4.4-10.51,15.09-5.12,24.28-7.59,15.42,3-29.41,0-37.37-7.16,8.4-10.35,5.65S48.42,92.47,65.9,83.83C83.82,75,114.3,73.34,122.73,73.7Z"/><polygon class="cls-5" points="112.14 90.29 112.07 90.26 137.43 85.3 122.92 80.09 99.74 84.81 108.65 88.81 99.27 84.81 99.13 89.21 112.19 94.49 137.68 89.28 137.81 85.31 112.14 90.29"/></g></svg>