<svg id="Layer_1" data-name="Layer 1" xmlns="http://www.w3.org/2000/svg" viewBox="0 0 138.53 134.13"><defs><style>.cls-1{fill:#018abe;}</style></defs><title>facesV2</title><path class="cls-1" d="M67.64,118.24a48.91,48.91,0,1,1,48.9-48.9A49,49,0,0,1,67.64,118.24Zm0-95.07a46.17,46.17,0,1,0,46.17,46.17A46.22,46.22,0,0,0,67.64,23.17Z"/><path class="cls-1" d="M85.62,69.34a3.54,3.54,0,1,1-3.54-3.54A3.55,3.55,0,0,1,85.62,69.34Z"/><path class="cls-1" d="M56.74,69.34A3.54,3.54,0,1,1,53.2,65.8,3.55,3.55,0,0,1,56.74,69.34Z"/><path class="cls-1" d="M84.24,63.19a3.64,3.64,0,0,0-2.75.17.5.5,0,0,0-.24.66.51.51,0,0,0,.66.23,2.65,2.65,0,0,1,2-.13,2.7,2.7,0,0,1,1.53,1.32.49.49,0,0,0,.66.21.5.5,0,0,0,.22-.66,3.67,3.67,0,0,0-2.09-1.8Z"/><path class="cls-1" d="M51.43,63.19a3.64,3.64,0,0,1,2.75.17.49.49,0,0,1,.23.66.49.49,0,0,1-.65.23,2.65,2.65,0,0,0-2-.13,2.7,2.7,0,0,0-1.53,1.32.49.49,0,0,1-.88-.45,3.64,3.64,0,0,1,2.09-1.8Z"/><path class="cls-1" d="M67.64,83.81A14.64,14.64,0,0,1,77.89,88a2,2,0,0,1-2.75,2.83,10.75,10.75,0,0,0-15,0,2,2,0,0,1-2.8,0,2,2,0,0,1,0-2.79,14.62,14.62,0,0,1,10.25-4.17Z"/></svg>