<svg id="Layer_1" data-name="Layer 1" xmlns="http://www.w3.org/2000/svg" viewBox="0 0 138.53 134.13"><defs><style>.cls-1{fill:#018abe;}</style></defs><title>facesV2</title><path class="cls-1" d="M69.26,120.12A51.75,51.75,0,1,1,121,68.37,51.81,51.81,0,0,1,69.26,120.12Zm0-100.6a48.86,48.86,0,1,0,48.86,48.85A48.9,48.9,0,0,0,69.26,19.52Z"/><path class="cls-1" d="M86.83,61.87a3.82,3.82,0,0,0-2.91.18.52.52,0,1,0,.44.94,2.84,2.84,0,0,1,2.14-.13,2.79,2.79,0,0,1,1.61,1.39.53.53,0,0,0,.7.22.52.52,0,0,0,.23-.7,3.87,3.87,0,0,0-2.21-1.9Z"/><path class="cls-1" d="M52.11,61.87a3.84,3.84,0,0,1,2.92.18.51.51,0,0,1,.24.69.52.52,0,0,1-.69.25,2.81,2.81,0,0,0-2.13-.13,2.78,2.78,0,0,0-1.62,1.39.53.53,0,0,1-.7.22.52.52,0,0,1-.23-.7,3.87,3.87,0,0,1,2.21-1.9Z"/><path class="cls-1" d="M69.26,83.69a15.49,15.49,0,0,1,10.85,4.4,2.09,2.09,0,1,1-2.91,3,11.39,11.39,0,0,0-15.87,0,2.09,2.09,0,0,1-2.92-3,15.52,15.52,0,0,1,10.85-4.4Z"/><path class="cls-1" d="M87.28,71.51a1.08,1.08,0,0,1-.46-.09,7.26,7.26,0,0,0-5.18,0,1.21,1.21,0,0,1-1.59-1.58,7.69,7.69,0,0,1,5.54-4.58A1.21,1.21,0,0,1,86,67.63a4.94,4.94,0,0,0-2,.9,9,9,0,0,1,3.72.66,1.2,1.2,0,0,1-.46,2.32Z"/><path class="cls-1" d="M51.25,71.51a1,1,0,0,0,.45-.09,7.25,7.25,0,0,1,5.18,0,1.21,1.21,0,0,0,1.6-1.58,7.7,7.7,0,0,0-5.54-4.58,1.2,1.2,0,0,0-1.38,1,1.22,1.22,0,0,0,1,1.38,4.87,4.87,0,0,1,1.94.9,9,9,0,0,0-3.71.66,1.2,1.2,0,0,0,.46,2.32Z"/></svg>